<?xml version="1.0" encoding="utf-8"?>
<?xml-stylesheet type="text/xsl" href="rss1.xsl"?>
<rss version="2.0" xmlns:atom="http://www.w3.org/2005/Atom" xmlns:content="http://purl.org/rss/1.0/modules/content/" xmlns:dc="http://purl.org/dc/elements/1.1/" xmlns:media="http://search.yahoo.com/mrss/">
<channel>
 <title>Getty</title>
 <link>http://www.gettyimg.com/</link>
 <atom:link href="http://www.gettyimg.com/" rel="self" type="application/rss+xml" />

 
                <item>
                <title><![CDATA[【HD Live Performances】FEED - H.E.R. - The Journey - ESPY Awards S01E31 2023 720p HDTV Backhaul FLAC 5.1 H.264-TrollHD]]></title>
                <link><![CDATA[https://sharemania.us/threads/h-e-r-the-journey-espy-awards-s01e31-2023-720p-hdtv-backhaul-flac-5-1-h-264-trollhd.224883/]]></link>
                <description><![CDATA[<article>
<blockquote class="messageText SelectQuoteContainer ugc baseHtml">
<img src="https://images2.imgbox.com/2e/07/clQUnGS8_o.jpg" class="bbCodeImage LbImage" alt="[​IMG]" data-url="https://images2.imgbox.com/2e/07/clQUnGS8_o.jpg" style=""> <br>
<br>
<div class="bbCodeBlock bbCodeCode">
<div class="type">Code:</div>
<pre>General
Unique ID                      : 12331605996356824135524608084008373193 (0x946FB1DE7E506E63899CA997A5A0BC9)
Format                         : Matroska
Format version                 : Version 4
File size                      : 575 MiB
Duration                       : 4 min 37 s
Overall bit rate mode          : Variable
Overall bit rate               : 17.4 Mb/s
Encoded date                   : UTC 2023-07-20 20:36:39
Writing application            : mkvmerge v30.0.0 ('Interstellar') 64-bit
Writing library                : libebml v1.3.6 + libmatroska v1.4.9

Video
ID                             : 1
Format                         : AVC
Format/Info                    : Advanced Video Codec
Format profile                 : High@L4
Format settings                : CABAC / 2 Ref Frames
Format settings, CABAC         : Yes
Format settings, Reference fra : 2 frames
Format settings, GOP           : M=3, N=30
Codec ID                       : V_MPEG4/ISO/AVC
Duration                       : 4 min 37 s
Bit rate                       : 15.8 Mb/s
Width                          : 1 280 pixels
Height                         : 720 pixels
Display aspect ratio           : 16:9
Frame rate mode                : Constant
Frame rate                     : 59.940 (60000/1001) FPS
Standard                       : Component
Color space                    : YUV
Chroma subsampling             : 4:2:0
Bit depth                      : 8 bits
Scan type                      : Progressive
Bits/(Pixel*Frame)             : 0.286
Stream size                    : 522 MiB (91%)
Default                        : Yes
Forced                         : No
Color range                    : Limited
Color primaries                : BT.709
Transfer characteristics       : BT.709
Matrix coefficients            : BT.709

Audio
ID                             : 2
Format                         : FLAC
Format/Info                    : Free Lossless Audio Codec
Codec ID                       : A_FLAC
Duration                       : 4 min 37 s
Bit rate mode                  : Variable
Bit rate                       : 1 614 kb/s
Channel(s)                     : 6 channels
Channel layout                 : L R C LFE Ls Rs
Sampling rate                  : 48.0 kHz
Frame rate                     : 11.719 FPS (4096 SPF)
Bit depth                      : 16 bits
Compression mode               : Lossless
Delay relative to video        : 48 ms
Stream size                    : 53.4 MiB (9%)
Writing library                : libFLAC 1.3.2 (UTC 2019-08-04)
Language                       : English
Default                        : Yes
Forced                         : No

</pre>
</div>
<div class="bbCodeBlock bbCodeVfcHH HiddenContent">
<div class="attribution type">Hidden Content:</div>
<blockquote>You must either reply or click 'Like' to see the hidden information contained here.</blockquote>
</div><span style="color: rgb(191, 191, 191)">Cutted with:</span><br>
<b>MKVToolNix GUI<br>
<br>
<img src="styles/default/xenforo/smilies/super_man-48.png" class="mceSmilie" alt=":super:" title="Super Man    :super:"><img src="styles/default/xenforo/smilies/super_man-48.png" class="mceSmilie" alt=":super:" title="Super Man    :super:"><img src="styles/default/xenforo/smilies/super_man-48.png" class="mceSmilie" alt=":super:" title="Super Man    :super:"></b>
<div class="messageTextEndMarker">&nbsp;</div>
</blockquote>
</article>]]></description>
                <author><![CDATA[Dream66]]></author>
                </item>

                
                <item>
                <title><![CDATA[【Requests】[REQ AUD] - FileJoker - The Doors albums links premium user request]]></title>
                <link><![CDATA[https://sharemania.us/threads/filejoker-the-doors-albums-links-premium-user-request.224881/]]></link>
                <description><![CDATA[<article>
<blockquote class="messageText SelectQuoteContainer ugc baseHtml">
Hi, Is it possible to access to these following links with a premium account, thanks for helping!<br>
<br>
<a href="https://filejoker.net/32hpnqpzl2jg" target="_blank" class="externalLink" rel="nofollow">https://filejoker.net/32hpnqpzl2jg</a><br>
<a href="https://filejoker.net/d0wiafl3w86h" target="_blank" class="externalLink" rel="nofollow">https://filejoker.net/d0wiafl3w86h</a><br>
<a href="https://filejoker.net/ufnddcqi29g7" target="_blank" class="externalLink" rel="nofollow">https://filejoker.net/ufnddcqi29g7</a><br>
<a href="https://filejoker.net/shkbfsmsaxkg" target="_blank" class="externalLink" rel="nofollow">https://filejoker.net/shkbfsmsaxkg</a><br>
<a href="https://filejoker.net/21jm7fngabld" target="_blank" class="externalLink" rel="nofollow">https://filejoker.net/21jm7fngabld</a><br>
<a href="https://filejoker.net/z7xgmcfrbx7t" target="_blank" class="externalLink" rel="nofollow">https://filejoker.net/z7xgmcfrbx7t</a>
<div class="messageTextEndMarker">&nbsp;</div>
</blockquote>
</article>]]></description>
                <author><![CDATA[arnaud35]]></author>
                </item>

                
                <item>
                <title><![CDATA[【Off-Topic】Ulozto.net Went Downhill]]></title>
                <link><![CDATA[https://sharemania.us/threads/ulozto-net-went-downhill.224882/]]></link>
                <description><![CDATA[<article>
<blockquote class="messageText SelectQuoteContainer ugc baseHtml">
First, they started limiting how much storage space an account can have.<br>
<br>
Second, they joined the stupid CloudFlare bandwagon. CloudFlare prevents harmless users from accessing sites because of its stupid endless captcha loop system.<br>
<br>
I urge people stop using Ulozto.net because its site owners have lost their minds.
<div class="messageTextEndMarker">&nbsp;</div>
</blockquote>
</article>]]></description>
                <author><![CDATA[SharingIsCaring]]></author>
                </item>

                </channel></rss>